<svg xmlns="http://www.w3.org/2000/svg" xmlns:xlink="http://www.w3.org/1999/xlink" version="1.1" xml:space="preserve">

<symbol id="logo" viewBox="0 0 218.983 218.983">
  <path d="M217.952,191.519l-29.578-50.476c-2.089-3.565-6.669-4.769-10.24-2.691l-17.12,9.955l-8.232-23.725  c-0.95-2.738-3.393-4.683-6.273-4.998c-2.876-0.31-5.685,1.06-7.202,3.528l-22.315,36.304v-42.445l34.777-20.079  c2.32-1.34,3.75-3.815,3.75-6.495V45.912c0-2.68-1.43-5.155-3.75-6.495l-38.527-22.244c-2.32-1.34-5.18-1.34-7.5,0L67.214,39.417  c-2.32,1.34-3.75,3.815-3.75,6.495v44.486c0,2.68,1.43,5.155,3.75,6.495l34.777,20.079v42.445l-22.315-36.304  c-1.518-2.469-4.327-3.838-7.203-3.528c-2.881,0.314-5.323,2.26-6.272,4.998l-8.231,23.724l-17.119-9.954  c-3.57-2.078-8.15-0.874-10.241,2.691L1.03,191.52c-2.094,3.574-0.895,8.168,2.679,10.263c1.192,0.699,2.497,1.03,3.785,1.03  c2.575,0,5.082-1.327,6.478-3.709l25.801-44.028l13.188,7.669l-10.446,30.109c-1.357,3.913,0.714,8.186,4.628,9.543  c0.814,0.283,1.643,0.416,2.459,0.416c3.105,0,6.01-1.944,7.085-5.043l9.486-27.343l39.548,22.997c2.33,1.355,5.209,1.356,7.539,0  l39.55-22.997l9.487,27.343c1.358,3.913,5.632,5.987,9.544,4.627c3.914-1.357,5.985-5.63,4.628-9.544l-10.446-30.109l13.188-7.669  l25.799,44.027c2.094,3.574,6.689,4.773,10.263,2.679C218.847,199.688,220.047,195.093,217.952,191.519z M78.464,50.242  l31.027-17.914l31.027,17.914v35.826l-31.027,17.914L78.464,86.068V50.242z M75.185,144.451l13.264,21.578l-17.267-10.04  L75.185,144.451z M130.534,166.03l13.264-21.579l4.004,11.539L130.534,166.03z"/>
</symbol>

</svg>
